<svg xmlns="http://www.w3.org/2000/svg" xmlns:svg="http://www.w3.org/2000/svg" xmlns:xlink="http://www.w3.org/1999/xlink" id="svg1204" width="630.743" height="100.056" version="1.1" viewBox="0 0 166.884 26.473"><defs id="defs1198"><marker id="Arrow1Mend" orient="auto" refX="0" refY="0" style="overflow:visible"><path id="path1890" d="M 0,0 5,-5 -12.5,0 5,5 Z" transform="matrix(-0.4,0,0,-0.4,-4,0)" style="fill:#000;fill-opacity:1;fill-rule:evenodd;stroke:#000;stroke-width:1.00000003pt;stroke-opacity:1"/></marker><marker style="overflow:visible" id="marker9899" orient="auto" refX="0" refY="0"><path style="fill:none;fill-opacity:1;fill-rule:evenodd;stroke:none;stroke-width:1.00000003pt;stroke-opacity:1" id="path9897" d="M 0,0 5,-5 -12.5,0 5,5 Z" transform="matrix(-0.8,0,0,-0.8,-10,0)"/></marker><marker id="marker4065" orient="auto" refX="0" refY="0" style="overflow:visible"><path id="path4063" d="M 0,0 5,-5 -12.5,0 5,5 Z" transform="matrix(-0.8,0,0,-0.8,-10,0)" style="fill:#000;fill-opacity:1;fill-rule:evenodd;stroke:#000;stroke-width:1.00000003pt;stroke-opacity:1"/></marker><marker style="overflow:visible" id="marker3388" orient="auto" refX="0" refY="0"><path style="fill:#000;fill-opacity:1;fill-rule:evenodd;stroke:#000;stroke-width:1.00000003pt;stroke-opacity:1" id="path3386" d="m -2.5,-1 c 0,2.76 -2.24,5 -5,5 -2.76,0 -5,-2.24 -5,-5 0,-2.76 2.24,-5 5,-5 2.76,0 5,2.24 5,5 z" transform="matrix(0.4,0,0,0.4,2.96,0.4)"/></marker><marker style="overflow:visible" id="marker3384" orient="auto" refX="0" refY="0"><path style="fill:#000;fill-opacity:1;fill-rule:evenodd;stroke:#000;stroke-width:1.00000003pt;stroke-opacity:1" id="path3382" d="m -2.5,-1 c 0,2.76 -2.24,5 -5,5 -2.76,0 -5,-2.24 -5,-5 0,-2.76 2.24,-5 5,-5 2.76,0 5,2.24 5,5 z" transform="matrix(0.4,0,0,0.4,2.96,0.4)"/></marker><marker style="overflow:visible" id="marker3380" orient="auto" refX="0" refY="0"><path style="fill:#000;fill-opacity:1;fill-rule:evenodd;stroke:#000;stroke-width:1.00000003pt;stroke-opacity:1" id="path3378" d="m -2.5,-1 c 0,2.76 -2.24,5 -5,5 -2.76,0 -5,-2.24 -5,-5 0,-2.76 2.24,-5 5,-5 2.76,0 5,2.24 5,5 z" transform="matrix(0.4,0,0,0.4,2.96,0.4)"/></marker><marker style="overflow:visible" id="marker3376" orient="auto" refX="0" refY="0"><path style="fill:#000;fill-opacity:1;fill-rule:evenodd;stroke:#000;stroke-width:1.00000003pt;stroke-opacity:1" id="path3374" d="m -2.5,-1 c 0,2.76 -2.24,5 -5,5 -2.76,0 -5,-2.24 -5,-5 0,-2.76 2.24,-5 5,-5 2.76,0 5,2.24 5,5 z" transform="matrix(0.4,0,0,0.4,2.96,0.4)"/></marker><marker style="overflow:visible" id="marker3372" orient="auto" refX="0" refY="0"><path style="fill:#000;fill-opacity:1;fill-rule:evenodd;stroke:#000;stroke-width:1.00000003pt;stroke-opacity:1" id="path3370" d="m -2.5,-1 c 0,2.76 -2.24,5 -5,5 -2.76,0 -5,-2.24 -5,-5 0,-2.76 2.24,-5 5,-5 2.76,0 5,2.24 5,5 z" transform="matrix(0.4,0,0,0.4,2.96,0.4)"/></marker><marker style="overflow:visible" id="marker3368" orient="auto" refX="0" refY="0"><path style="fill:#000;fill-opacity:1;fill-rule:evenodd;stroke:#000;stroke-width:1.00000003pt;stroke-opacity:1" id="path3366" d="m -2.5,-1 c 0,2.76 -2.24,5 -5,5 -2.76,0 -5,-2.24 -5,-5 0,-2.76 2.24,-5 5,-5 2.76,0 5,2.24 5,5 z" transform="matrix(0.4,0,0,0.4,2.96,0.4)"/></marker><marker style="overflow:visible" id="marker3364" orient="auto" refX="0" refY="0"><path style="fill:#000;fill-opacity:1;fill-rule:evenodd;stroke:#000;stroke-width:1.00000003pt;stroke-opacity:1" id="path3362" d="m -2.5,-1 c 0,2.76 -2.24,5 -5,5 -2.76,0 -5,-2.24 -5,-5 0,-2.76 2.24,-5 5,-5 2.76,0 5,2.24 5,5 z" transform="matrix(0.4,0,0,0.4,2.96,0.4)"/></marker><marker style="overflow:visible" id="marker3360" orient="auto" refX="0" refY="0"><path style="fill:#000;fill-opacity:1;fill-rule:evenodd;stroke:#000;stroke-width:1.00000003pt;stroke-opacity:1" id="path3358" d="m -2.5,-1 c 0,2.76 -2.24,5 -5,5 -2.76,0 -5,-2.24 -5,-5 0,-2.76 2.24,-5 5,-5 2.76,0 5,2.24 5,5 z" transform="matrix(0.4,0,0,0.4,2.96,0.4)"/></marker><marker style="overflow:visible" id="marker3356" orient="auto" refX="0" refY="0"><path style="fill:#000;fill-opacity:1;fill-rule:evenodd;stroke:#000;stroke-width:1.00000003pt;stroke-opacity:1" id="path3354" d="m -2.5,-1 c 0,2.76 -2.24,5 -5,5 -2.76,0 -5,-2.24 -5,-5 0,-2.76 2.24,-5 5,-5 2.76,0 5,2.24 5,5 z" transform="matrix(0.4,0,0,0.4,2.96,0.4)"/></marker><marker style="overflow:visible" id="marker3352" orient="auto" refX="0" refY="0"><path style="fill:#000;fill-opacity:1;fill-rule:evenodd;stroke:#000;stroke-width:1.00000003pt;stroke-opacity:1" id="path3350" d="m -2.5,-1 c 0,2.76 -2.24,5 -5,5 -2.76,0 -5,-2.24 -5,-5 0,-2.76 2.24,-5 5,-5 2.76,0 5,2.24 5,5 z" transform="matrix(0.4,0,0,0.4,2.96,0.4)"/></marker><marker id="marker3328" orient="auto" refX="0" refY="0" style="overflow:visible"><path id="path3326" d="m -2.5,-1 c 0,2.76 -2.24,5 -5,5 -2.76,0 -5,-2.24 -5,-5 0,-2.76 2.24,-5 5,-5 2.76,0 5,2.24 5,5 z" transform="matrix(0.4,0,0,0.4,2.96,0.4)" style="fill:#000;fill-opacity:1;fill-rule:evenodd;stroke:#000;stroke-width:1.00000003pt;stroke-opacity:1"/></marker><marker style="overflow:visible" id="marker2208" orient="auto" refX="0" refY="0"><path style="fill:#000;fill-opacity:1;fill-rule:evenodd;stroke:#000;stroke-width:1.00000003pt;stroke-opacity:1" id="path2206" d="m -2.5,-1 c 0,2.76 -2.24,5 -5,5 -2.76,0 -5,-2.24 -5,-5 0,-2.76 2.24,-5 5,-5 2.76,0 5,2.24 5,5 z" transform="matrix(0.4,0,0,0.4,2.96,0.4)"/></marker><marker style="overflow:visible" id="marker2202" orient="auto" refX="0" refY="0"><path style="fill:#000;fill-opacity:1;fill-rule:evenodd;stroke:#000;stroke-width:1.00000003pt;stroke-opacity:1" id="path2200" d="m -2.5,-1 c 0,2.76 -2.24,5 -5,5 -2.76,0 -5,-2.24 -5,-5 0,-2.76 2.24,-5 5,-5 2.76,0 5,2.24 5,5 z" transform="matrix(0.2,0,0,0.2,1.48,0.2)"/></marker><marker style="overflow:visible" id="marker2196" orient="auto" refX="0" refY="0"><path style="fill:#000;fill-opacity:1;fill-rule:evenodd;stroke:#000;stroke-width:1.00000003pt;stroke-opacity:1" id="path2194" d="m -2.5,-1 c 0,2.76 -2.24,5 -5,5 -2.76,0 -5,-2.24 -5,-5 0,-2.76 2.24,-5 5,-5 2.76,0 5,2.24 5,5 z" transform="matrix(0.4,0,0,0.4,2.96,0.4)"/></marker><marker style="overflow:visible" id="marker2190" orient="auto" refX="0" refY="0"><path style="fill:#000;fill-opacity:1;fill-rule:evenodd;stroke:#000;stroke-width:1.00000003pt;stroke-opacity:1" id="path2188" d="M 0,-7.0710768 -7.0710894,0 0,7.0710589 7.0710462,0 Z" transform="scale(0.2)"/></marker><marker style="overflow:visible" id="marker2184" orient="auto" refX="0" refY="0"><path style="fill:#fff;fill-rule:evenodd;stroke:#000;stroke-width:1.00000003pt;stroke-opacity:1" id="path2182" d="M 0,-7.0710768 -7.0710894,0 0,7.0710589 7.0710462,0 Z" transform="matrix(0.4,0,0,0.4,2.6,0)"/></marker><marker style="overflow:visible" id="marker2178" orient="auto" refX="0" refY="0"><path style="fill:#000;fill-opacity:1;fill-rule:evenodd;stroke:#000;stroke-width:.625;stroke-linejoin:round;stroke-opacity:1" id="path2176" d="M 8.7185878,4.0337352 -2.2072895,0.01601326 8.7185884,-4.0017078 c -1.7454984,2.3720609 -1.7354408,5.6174519 -6e-7,8.035443 z" transform="matrix(0.3,0,0,0.3,-0.69,0)"/></marker><marker style="overflow:visible" id="marker2172" orient="auto" refX="0" refY="0"><path style="fill:#000;fill-opacity:1;fill-rule:evenodd;stroke:#000;stroke-width:1.00000003pt;stroke-opacity:1" id="path2170" d="m -2.5,-1 c 0,2.76 -2.24,5 -5,5 -2.76,0 -5,-2.24 -5,-5 0,-2.76 2.24,-5 5,-5 2.76,0 5,2.24 5,5 z" transform="matrix(0.2,0,0,0.2,1.48,0.2)"/></marker><marker id="marker2166" orient="auto" refX="0" refY="0" style="overflow:visible"><g style="fill:#000;fill-opacity:1;stroke:#000;stroke-opacity:1" id="g2164"><path id="path2158" d="M 0,0 H 2" style="fill:#000;fill-opacity:1;stroke:#000;stroke-width:1.14999998;stroke-linecap:square;stroke-opacity:1"/><path id="path2160" d="M 0,0 13,4 9,0 13,-4 Z" style="fill:#000;fill-opacity:1;fill-rule:evenodd;stroke:#000;stroke-opacity:1"/><path id="path2162" d="M 0,-4 V 40" style="fill:#000;fill-opacity:1;stroke:#000;stroke-width:1;stroke-linecap:square;stroke-opacity:1"/></g></marker><marker style="overflow:visible" id="marker2151" orient="auto" refX="0" refY="0"><path style="fill:#000;fill-opacity:1;fill-rule:evenodd;stroke:#000;stroke-width:1.00000003pt;stroke-opacity:1" id="path2149" d="m -2.5,-1 c 0,2.76 -2.24,5 -5,5 -2.76,0 -5,-2.24 -5,-5 0,-2.76 2.24,-5 5,-5 2.76,0 5,2.24 5,5 z" transform="matrix(0.4,0,0,0.4,2.96,0.4)"/></marker><marker id="DotL" orient="auto" refX="0" refY="0" style="overflow:visible"><path id="path1942" d="m -2.5,-1 c 0,2.76 -2.24,5 -5,5 -2.76,0 -5,-2.24 -5,-5 0,-2.76 2.24,-5 5,-5 2.76,0 5,2.24 5,5 z" transform="matrix(0.8,0,0,0.8,5.92,0.8)" style="fill:#000;fill-opacity:1;fill-rule:evenodd;stroke:#000;stroke-width:1.00000003pt;stroke-opacity:1"/></marker><marker id="Arrow1Lend" orient="auto" refX="0" refY="0" style="overflow:visible"><path id="path5975" d="M 0,0 5,-5 -12.5,0 5,5 Z" transform="matrix(-0.8,0,0,-0.8,-10,0)" style="fill:#000;fill-opacity:1;fill-rule:evenodd;stroke:#000;stroke-width:1.00000003pt;stroke-opacity:1"/></marker><marker id="marker6256-3" orient="auto" refX="0" refY="0" style="overflow:visible"><path id="path6254-1" d="M 0,0 5,-5 -12.5,0 5,5 Z" transform="matrix(-0.8,0,0,-0.8,-10,0)" style="fill:#000;fill-opacity:1;fill-rule:evenodd;stroke:#000;stroke-width:1.00000003pt;stroke-opacity:1"/></marker><marker id="Arrow1Mend-9" orient="auto" refX="0" refY="0" style="overflow:visible"><path id="path1890-6" d="M 0,0 5,-5 -12.5,0 5,5 Z" transform="matrix(-0.4,0,0,-0.4,-4,0)" style="fill:#000;fill-opacity:1;fill-rule:evenodd;stroke:#000;stroke-width:1.00000003pt;stroke-opacity:1"/></marker><marker id="Arrow1Mend-9-3" orient="auto" refX="0" refY="0" style="overflow:visible"><path id="path1890-6-3" d="M 0,0 5,-5 -12.5,0 5,5 Z" transform="matrix(-0.4,0,0,-0.4,-4,0)" style="fill:#000;fill-opacity:1;fill-rule:evenodd;stroke:#000;stroke-width:1.00000003pt;stroke-opacity:1"/></marker><marker id="Arrow1Mend-9-3-8" orient="auto" refX="0" refY="0" style="overflow:visible"><path id="path1890-6-3-6" d="M 0,0 5,-5 -12.5,0 5,5 Z" transform="matrix(-0.4,0,0,-0.4,-4,0)" style="fill:#000;fill-opacity:1;fill-rule:evenodd;stroke:#000;stroke-width:1.00000003pt;stroke-opacity:1"/></marker></defs><metadata id="metadata1201"/><g id="layer1" transform="translate(-18.256706,-19.673914)"><text style="font-style:normal;font-weight:400;font-size:4.23333311px;line-height:6.61458302px;font-family:sans-serif;letter-spacing:0;word-spacing:0;fill:#000;fill-opacity:1;stroke:none;stroke-width:.26458332px;stroke-linecap:butt;stroke-linejoin:miter;stroke-opacity:1" id="text5835" x="30.144" y="24.061" xml:space="preserve"><tspan id="tspan5833" x="30.144" y="24.061" style="font-size:4.23333311px;stroke-width:.26458332px">Sound</tspan></text><text style="font-style:normal;font-weight:400;font-size:2.82222223px;line-height:6.61458302px;font-family:sans-serif;letter-spacing:0;word-spacing:0;fill:#000;fill-opacity:1;stroke:none;stroke-width:.26458332px;stroke-linecap:butt;stroke-linejoin:miter;stroke-opacity:1" id="text5839" x="52.431" y="45.56" xml:space="preserve"><tspan id="tspan5837" x="52.431" y="45.56" style="font-size:2.82222223px;stroke-width:.26458332px">Microphone</tspan></text><text style="font-style:normal;font-weight:400;font-size:2.82222223px;line-height:3.17499995px;font-family:sans-serif;text-align:center;letter-spacing:0;word-spacing:0;text-anchor:middle;fill:#000;fill-opacity:1;stroke:none;stroke-width:.26458332px;stroke-linecap:butt;stroke-linejoin:miter;stroke-opacity:1" id="text5843" x="117.945" y="42.932" xml:space="preserve"><tspan id="tspan5841" x="117.945" y="42.932" style="font-size:2.82222223px;line-height:3.17499995px;stroke-width:.26458332px">Analog-to-Digital</tspan><tspan id="tspan5845" x="117.945" y="46.107" style="font-size:2.82222223px;line-height:3.17499995px;stroke-width:.26458332px">Converter</tspan></text><text style="font-style:normal;font-weight:400;font-size:4.23333311px;line-height:6.61458302px;font-family:sans-serif;letter-spacing:0;word-spacing:0;fill:#000;fill-opacity:1;stroke:none;stroke-width:.26458332px;stroke-linecap:butt;stroke-linejoin:miter;stroke-opacity:1" id="text5849" x="148.928" y="23.377" xml:space="preserve"><tspan id="tspan5847" x="148.928" y="23.377" style="font-size:4.23333311px;stroke-width:.26458332px">Digital Waveform</tspan></text><g id="g5954" transform="matrix(1.5468068,0,0,1.5468068,12.581627,-54.189918)"><path id="path5827" d="m 64.689496,51.602078 h 8.202321 v 6.541577 H 64.689496 L 61.0041,54.872867 Z" style="fill:none;fill-rule:evenodd;stroke:#000;stroke-width:.29412222px;stroke-linecap:butt;stroke-linejoin:miter;stroke-opacity:1"/><text id="text5921" x="64.768" y="55.9" xml:space="preserve" style="font-style:normal;font-weight:400;font-size:2.82222223px;line-height:1.86777925px;font-family:sans-serif;letter-spacing:0;word-spacing:0;fill:#000;fill-opacity:1;stroke:none;stroke-width:.07471117px;stroke-linecap:butt;stroke-linejoin:miter;stroke-opacity:1"><tspan style="font-size:2.82222223px;stroke-width:.07471117px" id="tspan5919" x="64.768" y="55.9">ADC</tspan></text></g><g id="g5949" transform="matrix(1.4739343,0,0,1.4739343,-16.794408,-48.714177)"><circle id="path5829" cx="51.47" cy="54.049" r="4.393" style="opacity:1;fill:none;fill-opacity:1;stroke:#000;stroke-width:.2;stroke-linecap:butt;stroke-linejoin:miter;stroke-miterlimit:4;stroke-dasharray:none;stroke-dashoffset:0;stroke-opacity:1"/><path id="path5831" d="m 46.922193,49.349503 v 9.034105" style="fill:none;fill-rule:evenodd;stroke:#000;stroke-width:.26458332px;stroke-linecap:butt;stroke-linejoin:miter;stroke-opacity:1"/><text id="text5921-3" x="49.033" y="54.877" xml:space="preserve" style="font-style:normal;font-weight:400;font-size:2.82222223px;line-height:1.86777925px;font-family:sans-serif;letter-spacing:0;word-spacing:0;fill:#000;fill-opacity:1;stroke:none;stroke-width:.07471117px;stroke-linecap:butt;stroke-linejoin:miter;stroke-opacity:1"><tspan style="font-size:2.82222223px;stroke-width:.07471117px" id="tspan5919-3" x="49.033" y="54.877">Mic</tspan></text></g><text style="font-style:normal;font-weight:400;font-size:2.82222223px;line-height:6.61458302px;font-family:sans-serif;letter-spacing:0;word-spacing:0;fill:#000;fill-opacity:1;stroke:none;stroke-width:.26458332px;stroke-linecap:butt;stroke-linejoin:miter;stroke-opacity:1" id="text5958" x="88.323" y="39.006" xml:space="preserve"><tspan id="tspan5956" x="88.323" y="39.006" style="font-size:2.82222223px;stroke-width:.26458332px">Voltage</tspan></text><text style="font-style:normal;font-weight:400;font-size:2.82222223px;line-height:6.61458302px;font-family:sans-serif;letter-spacing:0;word-spacing:0;fill:#000;fill-opacity:1;stroke:none;stroke-width:.26458332px;stroke-linecap:butt;stroke-linejoin:miter;stroke-opacity:1" id="text5962" x="152.553" y="39.553" xml:space="preserve"><tspan id="tspan5960" x="152.553" y="39.553" style="font-size:2.82222223px;stroke-width:.26458332px">Numbers</tspan></text><text id="text5966" x="31.776" y="39.864" xml:space="preserve" style="font-style:normal;font-weight:400;font-size:2.82222223px;line-height:6.61458302px;font-family:sans-serif;letter-spacing:0;word-spacing:0;fill:#000;fill-opacity:1;stroke:none;stroke-width:.26458332px;stroke-linecap:butt;stroke-linejoin:miter;stroke-opacity:1"><tspan style="font-size:2.82222223px;stroke-width:.26458332px" id="tspan5964" x="31.776" y="39.864">Air Pressure</tspan></text><path style="fill:none;fill-rule:evenodd;stroke:none;stroke-width:.26499999;stroke-linecap:butt;stroke-linejoin:miter;stroke-miterlimit:4;stroke-dasharray:none;stroke-opacity:1;marker-end:url(#marker9899)" id="path5968" d="m 43.942474,31.043248 6.514957,0.155253"/><path style="fill:none;fill-rule:evenodd;stroke:#000;stroke-width:.30000001;stroke-linecap:butt;stroke-linejoin:miter;stroke-miterlimit:4;stroke-dasharray:.3,.3;stroke-dashoffset:0;stroke-opacity:1" id="path1792-5-1" d="m 135.56261,30.80013 29.77885,0.0091"/><path style="fill:none;fill-rule:evenodd;stroke:#000;stroke-width:.59350836px;stroke-linecap:butt;stroke-linejoin:miter;stroke-opacity:.38348083" id="path1798-7-8" d="m 135.56261,30.80013 c 0.9007,-4.07926 0.93975,-4.36478 2.04841,-8.427486 0.59419,-1.983001 3.08212,-3.132602 4.84513,-1.874349 1.5774,1.503733 1.314,2.313338 2.29269,5.137626 0.80262,3.575897 1.19864,5.145535 1.76137,7.326292 0.55415,2.561469 0.96111,4.71715 1.97703,6.961777 1.32389,2.355087 1.73372,-0.783136 2.25698,-2.175693 1.11497,-3.017825 1.82416,-6.212477 3.22992,-9.106229 0.77247,-1.72007 2.46239,-3.191698 3.64985,-0.04362 0.63243,2.061497 1.27934,4.122932 2.10867,6.115439 1.57185,1.973237 1.71887,-1.957148 2.25568,-4.976349 0.46579,-2.178988 2.14806,-2.854341 3.35312,1.071644"/><path style="fill:none;fill-rule:evenodd;stroke:#000;stroke-width:.2117094;stroke-linecap:butt;stroke-linejoin:miter;stroke-miterlimit:4;stroke-dasharray:none;stroke-opacity:1;marker-end:url(#marker2208)" id="path1879" d="m 136.86319,30.789058 v -5.39973"/><path id="path2147" d="M 141.80101,30.792976 V 20.158537" style="fill:none;fill-rule:evenodd;stroke:#000;stroke-width:.2117094;stroke-linecap:butt;stroke-linejoin:miter;stroke-miterlimit:4;stroke-dasharray:none;stroke-opacity:1;marker-end:url(#marker3352)"/><path style="fill:none;fill-rule:evenodd;stroke:#000;stroke-width:.2117094;stroke-linecap:butt;stroke-linejoin:miter;stroke-miterlimit:4;stroke-dasharray:none;stroke-opacity:1;marker-end:url(#marker3360)" id="use2210" d="M 139.33209,30.792976 V 20.405039"/><path style="fill:none;fill-rule:evenodd;stroke:#000;stroke-width:.2117094;stroke-linecap:butt;stroke-linejoin:miter;stroke-miterlimit:4;stroke-dasharray:none;stroke-opacity:1;marker-end:url(#marker3364)" id="use2212" d="M 144.26994,30.792976 V 23.996923"/><path style="fill:none;fill-rule:evenodd;stroke:#000;stroke-width:.2117094;stroke-linecap:butt;stroke-linejoin:miter;stroke-miterlimit:4;stroke-dasharray:none;stroke-opacity:1;marker-end:url(#marker3368)" id="use2214" d="m 146.73884,30.792976 v 3.099238"/><path style="fill:none;fill-rule:evenodd;stroke:#000;stroke-width:.2117094;stroke-linecap:butt;stroke-linejoin:miter;stroke-miterlimit:4;stroke-dasharray:none;stroke-opacity:1;marker-end:url(#marker3376)" id="use2216" d="M 151.67669,30.792976 V 34.94865"/><path style="fill:none;fill-rule:evenodd;stroke:#000;stroke-width:.2117094;stroke-linecap:butt;stroke-linejoin:miter;stroke-miterlimit:4;stroke-dasharray:none;stroke-opacity:1;marker-end:url(#marker3384)" id="use2218" d="M 156.61451,30.792976 V 26.919732"/><path style="fill:none;fill-rule:evenodd;stroke:#000;stroke-width:.2117094;stroke-linecap:butt;stroke-linejoin:miter;stroke-miterlimit:4;stroke-dasharray:none;stroke-opacity:1;marker-end:url(#marker3372)" id="use2220" d="m 149.20776,30.792976 v 9.790002"/><path style="fill:none;fill-rule:evenodd;stroke:#000;stroke-width:.2117094;stroke-linecap:butt;stroke-linejoin:miter;stroke-miterlimit:4;stroke-dasharray:none;stroke-opacity:1;marker-end:url(#marker3380)" id="use2222" d="M 154.14559,30.792976 V 28.328314"/><path style="fill:none;fill-rule:evenodd;stroke:#000;stroke-width:.2117094;stroke-linecap:butt;stroke-linejoin:miter;stroke-miterlimit:4;stroke-dasharray:none;stroke-opacity:1;marker-end:url(#marker3388)" id="use2224" d="m 159.08342,30.792976 v 2.359732"/><path style="fill:none;fill-rule:evenodd;stroke:#000;stroke-width:.2117094;stroke-linecap:butt;stroke-linejoin:miter;stroke-miterlimit:4;stroke-dasharray:none;stroke-opacity:1;marker-end:url(#marker3328)" id="use2226" d="m 161.55233,30.792976 v 2.183659"/><path style="fill:none;fill-rule:evenodd;stroke:#000;stroke-width:.2117094;stroke-linecap:butt;stroke-linejoin:miter;stroke-miterlimit:4;stroke-dasharray:none;stroke-opacity:1;marker-end:url(#marker3356)" id="use2228" d="M 164.02126,31.112409 V 28.295603"/><path style="fill:none;fill-rule:evenodd;stroke:#000;stroke-width:.30000001;stroke-linecap:butt;stroke-linejoin:miter;stroke-miterlimit:4;stroke-dasharray:.3,.3;stroke-dashoffset:0;stroke-opacity:1" id="path1792-5-1-9" d="m 73.686984,30.800653 23.208752,0.0071"/><path style="fill:none;fill-rule:evenodd;stroke:#000;stroke-width:.46256277px;stroke-linecap:butt;stroke-linejoin:miter;stroke-opacity:1" id="path1798-7-8-7" d="m 73.686984,30.800653 c 0.701984,-3.179254 0.732411,-3.40178 1.596471,-6.568132 0.463094,-1.545492 2.402116,-2.441457 3.776148,-1.460812 1.229379,1.171965 1.02409,1.802947 1.786849,4.004113 0.625546,2.786948 0.934199,4.010277 1.372766,5.709894 0.431884,1.996333 0.749056,3.676407 1.540842,5.425802 1.031799,1.835485 1.351209,-0.610353 1.759018,-1.69567 0.868974,-2.352003 1.421699,-4.84182 2.517304,-7.097124 0.60204,-1.340572 1.919116,-2.487515 2.84458,-0.034 0.492901,1.60667 0.997088,3.213291 1.643443,4.766192 1.225054,1.537882 1.339634,-1.525343 1.758016,-3.878419 0.36302,-1.698238 1.674122,-2.224588 2.613315,0.835208"/><path style="fill:none;fill-rule:evenodd;stroke:#000;stroke-width:.30000001;stroke-linecap:butt;stroke-linejoin:miter;stroke-miterlimit:4;stroke-dasharray:.3,.3;stroke-dashoffset:0;stroke-opacity:1" id="path1792-5-1-8" d="m 18.482548,31.036196 23.208752,0.0071"/><path style="fill:none;fill-rule:evenodd;stroke:#000;stroke-width:.46256277px;stroke-linecap:butt;stroke-linejoin:miter;stroke-opacity:1" id="path1798-7-8-8" d="m 18.482548,31.036196 c 0.701984,-3.179254 0.732411,-3.40178 1.596471,-6.568132 0.463094,-1.545492 2.402116,-2.441457 3.776148,-1.460812 1.229379,1.171965 1.02409,1.802947 1.786849,4.004113 0.625546,2.786948 0.934199,4.010277 1.372766,5.709894 0.431884,1.996333 0.749056,3.676407 1.540842,5.425802 1.031799,1.835485 1.351209,-0.610353 1.759018,-1.69567 0.868974,-2.352003 1.421699,-4.84182 2.517304,-7.097124 0.60204,-1.340572 1.919116,-2.487515 2.84458,-0.034 0.492901,1.60667 0.997088,3.213291 1.643443,4.766192 1.225054,1.537882 1.339634,-1.525343 1.758016,-3.878419 0.36302,-1.698238 1.674122,-2.224588 2.613315,0.835208"/><use id="use3411" width="100%" height="100%" x="0" y="0" transform="translate(22.700386,-0.3978481)" xlink:href="#path5968"/><use id="use5035" width="100%" height="100%" x="0" y="0" transform="translate(54.694651,-0.6847841)" xlink:href="#path5968"/><use id="use5093" width="100%" height="100%" x="0" y="0" transform="translate(74.753435,2.7412569)" xlink:href="#path5968"/><path style="fill:none;fill-rule:evenodd;stroke:#000;stroke-width:.26499999;stroke-linecap:butt;stroke-linejoin:miter;stroke-miterlimit:4;stroke-dasharray:none;stroke-opacity:1;marker-end:url(#Arrow1Mend)" id="path9945" d="m 43.90835,30.859683 c 0.776266,0 5.356241,0 5.356241,0"/><path style="fill:none;fill-rule:evenodd;stroke:#000;stroke-width:.26499999;stroke-linecap:butt;stroke-linejoin:miter;stroke-miterlimit:4;stroke-dasharray:none;stroke-opacity:1;marker-end:url(#Arrow1Mend-9)" id="path9945-4" d="m 66.64286,30.859683 c 0.776266,0 5.356241,0 5.356241,0"/><path style="fill:none;fill-rule:evenodd;stroke:#000;stroke-width:.26499999;stroke-linecap:butt;stroke-linejoin:miter;stroke-miterlimit:4;stroke-dasharray:none;stroke-opacity:1;marker-end:url(#Arrow1Mend-9-3)" id="path9945-4-3" d="m 99.166292,30.859683 c 0.776266,0 5.356248,0 5.356248,0"/><path style="fill:none;fill-rule:evenodd;stroke:#000;stroke-width:.26499999;stroke-linecap:butt;stroke-linejoin:miter;stroke-miterlimit:4;stroke-dasharray:none;stroke-opacity:1;marker-end:url(#Arrow1Mend-9-3-8)" id="path9945-4-3-0" d="m 127.21826,30.859683 c 0.77626,0 5.35624,0 5.35624,0"/></g></svg>