<svg xmlns="http://www.w3.org/2000/svg" xmlns:svg="http://www.w3.org/2000/svg" xmlns:xlink="http://www.w3.org/1999/xlink" id="svg1204" width="1807.106" height="286.665" version="1.1" viewBox="0 0 478.13 75.847"><defs id="defs1198"><marker id="Arrow1Mend" orient="auto" refX="0" refY="0" style="overflow:visible"><path id="path1890" d="M 0,0 5,-5 -12.5,0 5,5 Z" transform="matrix(-0.4,0,0,-0.4,-4,0)" style="fill:#000;fill-opacity:1;fill-rule:evenodd;stroke:#000;stroke-width:1.00000003pt;stroke-opacity:1"/></marker><marker style="overflow:visible" id="marker9899" orient="auto" refX="0" refY="0"><path style="fill:none;fill-opacity:1;fill-rule:evenodd;stroke:none;stroke-width:1.00000003pt;stroke-opacity:1" id="path9897" d="M 0,0 5,-5 -12.5,0 5,5 Z" transform="matrix(-0.8,0,0,-0.8,-10,0)"/></marker><marker id="marker4065" orient="auto" refX="0" refY="0" style="overflow:visible"><path id="path4063" d="M 0,0 5,-5 -12.5,0 5,5 Z" transform="matrix(-0.8,0,0,-0.8,-10,0)" style="fill:#000;fill-opacity:1;fill-rule:evenodd;stroke:#000;stroke-width:1.00000003pt;stroke-opacity:1"/></marker><marker style="overflow:visible" id="marker3388" orient="auto" refX="0" refY="0"><path style="fill:#000;fill-opacity:1;fill-rule:evenodd;stroke:#000;stroke-width:1.00000003pt;stroke-opacity:1" id="path3386" d="m -2.5,-1 c 0,2.76 -2.24,5 -5,5 -2.76,0 -5,-2.24 -5,-5 0,-2.76 2.24,-5 5,-5 2.76,0 5,2.24 5,5 z" transform="matrix(0.4,0,0,0.4,2.96,0.4)"/></marker><marker style="overflow:visible" id="marker3384" orient="auto" refX="0" refY="0"><path style="fill:#000;fill-opacity:1;fill-rule:evenodd;stroke:#000;stroke-width:1.00000003pt;stroke-opacity:1" id="path3382" d="m -2.5,-1 c 0,2.76 -2.24,5 -5,5 -2.76,0 -5,-2.24 -5,-5 0,-2.76 2.24,-5 5,-5 2.76,0 5,2.24 5,5 z" transform="matrix(0.4,0,0,0.4,2.96,0.4)"/></marker><marker style="overflow:visible" id="marker3380" orient="auto" refX="0" refY="0"><path style="fill:#000;fill-opacity:1;fill-rule:evenodd;stroke:#000;stroke-width:1.00000003pt;stroke-opacity:1" id="path3378" d="m -2.5,-1 c 0,2.76 -2.24,5 -5,5 -2.76,0 -5,-2.24 -5,-5 0,-2.76 2.24,-5 5,-5 2.76,0 5,2.24 5,5 z" transform="matrix(0.4,0,0,0.4,2.96,0.4)"/></marker><marker style="overflow:visible" id="marker3376" orient="auto" refX="0" refY="0"><path style="fill:#000;fill-opacity:1;fill-rule:evenodd;stroke:#000;stroke-width:1.00000003pt;stroke-opacity:1" id="path3374" d="m -2.5,-1 c 0,2.76 -2.24,5 -5,5 -2.76,0 -5,-2.24 -5,-5 0,-2.76 2.24,-5 5,-5 2.76,0 5,2.24 5,5 z" transform="matrix(0.4,0,0,0.4,2.96,0.4)"/></marker><marker style="overflow:visible" id="marker3372" orient="auto" refX="0" refY="0"><path style="fill:#000;fill-opacity:1;fill-rule:evenodd;stroke:#000;stroke-width:1.00000003pt;stroke-opacity:1" id="path3370" d="m -2.5,-1 c 0,2.76 -2.24,5 -5,5 -2.76,0 -5,-2.24 -5,-5 0,-2.76 2.24,-5 5,-5 2.76,0 5,2.24 5,5 z" transform="matrix(0.4,0,0,0.4,2.96,0.4)"/></marker><marker style="overflow:visible" id="marker3368" orient="auto" refX="0" refY="0"><path style="fill:#000;fill-opacity:1;fill-rule:evenodd;stroke:#000;stroke-width:1.00000003pt;stroke-opacity:1" id="path3366" d="m -2.5,-1 c 0,2.76 -2.24,5 -5,5 -2.76,0 -5,-2.24 -5,-5 0,-2.76 2.24,-5 5,-5 2.76,0 5,2.24 5,5 z" transform="matrix(0.4,0,0,0.4,2.96,0.4)"/></marker><marker style="overflow:visible" id="marker3364" orient="auto" refX="0" refY="0"><path style="fill:#000;fill-opacity:1;fill-rule:evenodd;stroke:#000;stroke-width:1.00000003pt;stroke-opacity:1" id="path3362" d="m -2.5,-1 c 0,2.76 -2.24,5 -5,5 -2.76,0 -5,-2.24 -5,-5 0,-2.76 2.24,-5 5,-5 2.76,0 5,2.24 5,5 z" transform="matrix(0.4,0,0,0.4,2.96,0.4)"/></marker><marker style="overflow:visible" id="marker3360" orient="auto" refX="0" refY="0"><path style="fill:#000;fill-opacity:1;fill-rule:evenodd;stroke:#000;stroke-width:1.00000003pt;stroke-opacity:1" id="path3358" d="m -2.5,-1 c 0,2.76 -2.24,5 -5,5 -2.76,0 -5,-2.24 -5,-5 0,-2.76 2.24,-5 5,-5 2.76,0 5,2.24 5,5 z" transform="matrix(0.4,0,0,0.4,2.96,0.4)"/></marker><marker style="overflow:visible" id="marker3356" orient="auto" refX="0" refY="0"><path style="fill:#000;fill-opacity:1;fill-rule:evenodd;stroke:#000;stroke-width:1.00000003pt;stroke-opacity:1" id="path3354" d="m -2.5,-1 c 0,2.76 -2.24,5 -5,5 -2.76,0 -5,-2.24 -5,-5 0,-2.76 2.24,-5 5,-5 2.76,0 5,2.24 5,5 z" transform="matrix(0.4,0,0,0.4,2.96,0.4)"/></marker><marker style="overflow:visible" id="marker3352" orient="auto" refX="0" refY="0"><path style="fill:#000;fill-opacity:1;fill-rule:evenodd;stroke:#000;stroke-width:1.00000003pt;stroke-opacity:1" id="path3350" d="m -2.5,-1 c 0,2.76 -2.24,5 -5,5 -2.76,0 -5,-2.24 -5,-5 0,-2.76 2.24,-5 5,-5 2.76,0 5,2.24 5,5 z" transform="matrix(0.4,0,0,0.4,2.96,0.4)"/></marker><marker id="marker3328" orient="auto" refX="0" refY="0" style="overflow:visible"><path id="path3326" d="m -2.5,-1 c 0,2.76 -2.24,5 -5,5 -2.76,0 -5,-2.24 -5,-5 0,-2.76 2.24,-5 5,-5 2.76,0 5,2.24 5,5 z" transform="matrix(0.4,0,0,0.4,2.96,0.4)" style="fill:#000;fill-opacity:1;fill-rule:evenodd;stroke:#000;stroke-width:1.00000003pt;stroke-opacity:1"/></marker><marker style="overflow:visible" id="marker2208" orient="auto" refX="0" refY="0"><path style="fill:#000;fill-opacity:1;fill-rule:evenodd;stroke:#000;stroke-width:1.00000003pt;stroke-opacity:1" id="path2206" d="m -2.5,-1 c 0,2.76 -2.24,5 -5,5 -2.76,0 -5,-2.24 -5,-5 0,-2.76 2.24,-5 5,-5 2.76,0 5,2.24 5,5 z" transform="matrix(0.4,0,0,0.4,2.96,0.4)"/></marker><marker style="overflow:visible" id="marker2202" orient="auto" refX="0" refY="0"><path style="fill:#000;fill-opacity:1;fill-rule:evenodd;stroke:#000;stroke-width:1.00000003pt;stroke-opacity:1" id="path2200" d="m -2.5,-1 c 0,2.76 -2.24,5 -5,5 -2.76,0 -5,-2.24 -5,-5 0,-2.76 2.24,-5 5,-5 2.76,0 5,2.24 5,5 z" transform="matrix(0.2,0,0,0.2,1.48,0.2)"/></marker><marker style="overflow:visible" id="marker2196" orient="auto" refX="0" refY="0"><path style="fill:#000;fill-opacity:1;fill-rule:evenodd;stroke:#000;stroke-width:1.00000003pt;stroke-opacity:1" id="path2194" d="m -2.5,-1 c 0,2.76 -2.24,5 -5,5 -2.76,0 -5,-2.24 -5,-5 0,-2.76 2.24,-5 5,-5 2.76,0 5,2.24 5,5 z" transform="matrix(0.4,0,0,0.4,2.96,0.4)"/></marker><marker style="overflow:visible" id="marker2190" orient="auto" refX="0" refY="0"><path style="fill:#000;fill-opacity:1;fill-rule:evenodd;stroke:#000;stroke-width:1.00000003pt;stroke-opacity:1" id="path2188" d="M 0,-7.0710768 -7.0710894,0 0,7.0710589 7.0710462,0 Z" transform="scale(0.2)"/></marker><marker style="overflow:visible" id="marker2184" orient="auto" refX="0" refY="0"><path style="fill:#fff;fill-rule:evenodd;stroke:#000;stroke-width:1.00000003pt;stroke-opacity:1" id="path2182" d="M 0,-7.0710768 -7.0710894,0 0,7.0710589 7.0710462,0 Z" transform="matrix(0.4,0,0,0.4,2.6,0)"/></marker><marker style="overflow:visible" id="marker2178" orient="auto" refX="0" refY="0"><path style="fill:#000;fill-opacity:1;fill-rule:evenodd;stroke:#000;stroke-width:.625;stroke-linejoin:round;stroke-opacity:1" id="path2176" d="M 8.7185878,4.0337352 -2.2072895,0.01601326 8.7185884,-4.0017078 c -1.7454984,2.3720609 -1.7354408,5.6174519 -6e-7,8.035443 z" transform="matrix(0.3,0,0,0.3,-0.69,0)"/></marker><marker style="overflow:visible" id="marker2172" orient="auto" refX="0" refY="0"><path style="fill:#000;fill-opacity:1;fill-rule:evenodd;stroke:#000;stroke-width:1.00000003pt;stroke-opacity:1" id="path2170" d="m -2.5,-1 c 0,2.76 -2.24,5 -5,5 -2.76,0 -5,-2.24 -5,-5 0,-2.76 2.24,-5 5,-5 2.76,0 5,2.24 5,5 z" transform="matrix(0.2,0,0,0.2,1.48,0.2)"/></marker><marker id="marker2166" orient="auto" refX="0" refY="0" style="overflow:visible"><g style="fill:#000;fill-opacity:1;stroke:#000;stroke-opacity:1" id="g2164"><path id="path2158" d="M 0,0 H 2" style="fill:#000;fill-opacity:1;stroke:#000;stroke-width:1.14999998;stroke-linecap:square;stroke-opacity:1"/><path id="path2160" d="M 0,0 13,4 9,0 13,-4 Z" style="fill:#000;fill-opacity:1;fill-rule:evenodd;stroke:#000;stroke-opacity:1"/><path id="path2162" d="M 0,-4 V 40" style="fill:#000;fill-opacity:1;stroke:#000;stroke-width:1;stroke-linecap:square;stroke-opacity:1"/></g></marker><marker style="overflow:visible" id="marker2151" orient="auto" refX="0" refY="0"><path style="fill:#000;fill-opacity:1;fill-rule:evenodd;stroke:#000;stroke-width:1.00000003pt;stroke-opacity:1" id="path2149" d="m -2.5,-1 c 0,2.76 -2.24,5 -5,5 -2.76,0 -5,-2.24 -5,-5 0,-2.76 2.24,-5 5,-5 2.76,0 5,2.24 5,5 z" transform="matrix(0.4,0,0,0.4,2.96,0.4)"/></marker><marker id="DotL" orient="auto" refX="0" refY="0" style="overflow:visible"><path id="path1942" d="m -2.5,-1 c 0,2.76 -2.24,5 -5,5 -2.76,0 -5,-2.24 -5,-5 0,-2.76 2.24,-5 5,-5 2.76,0 5,2.24 5,5 z" transform="matrix(0.8,0,0,0.8,5.92,0.8)" style="fill:#000;fill-opacity:1;fill-rule:evenodd;stroke:#000;stroke-width:1.00000003pt;stroke-opacity:1"/></marker><marker id="Arrow1Lend" orient="auto" refX="0" refY="0" style="overflow:visible"><path id="path5975" d="M 0,0 5,-5 -12.5,0 5,5 Z" transform="matrix(-0.8,0,0,-0.8,-10,0)" style="fill:#000;fill-opacity:1;fill-rule:evenodd;stroke:#000;stroke-width:1.00000003pt;stroke-opacity:1"/></marker><marker id="marker6256-3" orient="auto" refX="0" refY="0" style="overflow:visible"><path id="path6254-1" d="M 0,0 5,-5 -12.5,0 5,5 Z" transform="matrix(-0.8,0,0,-0.8,-10,0)" style="fill:#000;fill-opacity:1;fill-rule:evenodd;stroke:#000;stroke-width:1.00000003pt;stroke-opacity:1"/></marker><marker id="Arrow1Mend-9" orient="auto" refX="0" refY="0" style="overflow:visible"><path id="path1890-6" d="M 0,0 5,-5 -12.5,0 5,5 Z" transform="matrix(-0.4,0,0,-0.4,-4,0)" style="fill:#000;fill-opacity:1;fill-rule:evenodd;stroke:#000;stroke-width:1.00000003pt;stroke-opacity:1"/></marker><marker id="Arrow1Mend-9-3" orient="auto" refX="0" refY="0" style="overflow:visible"><path id="path1890-6-3" d="M 0,0 5,-5 -12.5,0 5,5 Z" transform="matrix(-0.4,0,0,-0.4,-4,0)" style="fill:#000;fill-opacity:1;fill-rule:evenodd;stroke:#000;stroke-width:1.00000003pt;stroke-opacity:1"/></marker><marker id="Arrow1Mend-9-3-8" orient="auto" refX="0" refY="0" style="overflow:visible"><path id="path1890-6-3-6" d="M 0,0 5,-5 -12.5,0 5,5 Z" transform="matrix(-0.4,0,0,-0.4,-4,0)" style="fill:#000;fill-opacity:1;fill-rule:evenodd;stroke:#000;stroke-width:1.00000003pt;stroke-opacity:1"/></marker></defs><metadata id="metadata1201"/><g id="layer1" transform="translate(-35.715488,276.54729)"><text style="font-style:normal;font-weight:400;font-size:12.12867546px;line-height:18.95105934px;font-family:sans-serif;letter-spacing:0;word-spacing:0;fill:#000;fill-opacity:1;stroke:none;stroke-width:.75804222px;stroke-linecap:butt;stroke-linejoin:miter;stroke-opacity:1" id="text5835" x="69.773" y="-263.978" xml:space="preserve"><tspan id="tspan5833" x="69.773" y="-263.978" style="font-size:12.12867546px;stroke-width:.75804222px">Sound</tspan></text><text style="font-style:normal;font-weight:400;font-size:8.08578491px;line-height:18.95105934px;font-family:sans-serif;letter-spacing:0;word-spacing:0;fill:#000;fill-opacity:1;stroke:none;stroke-width:.75804222px;stroke-linecap:butt;stroke-linejoin:miter;stroke-opacity:1" id="text5839" x="133.628" y="-202.382" xml:space="preserve"><tspan id="tspan5837" x="133.628" y="-202.382" style="font-size:8.08578491px;stroke-width:.75804222px">Microphone</tspan></text><text style="font-style:normal;font-weight:400;font-size:8.08578491px;line-height:9.09650707px;font-family:sans-serif;text-align:center;letter-spacing:0;word-spacing:0;text-anchor:middle;fill:#000;fill-opacity:1;stroke:none;stroke-width:.75804222px;stroke-linecap:butt;stroke-linejoin:miter;stroke-opacity:1" id="text5843" x="321.328" y="-209.911" xml:space="preserve"><tspan id="tspan5841" x="321.328" y="-209.911" style="font-size:8.08578491px;line-height:9.09650707px;stroke-width:.75804222px">Analog-to-Digital</tspan><tspan id="tspan5845" x="321.328" y="-200.815" style="font-size:8.08578491px;line-height:9.09650707px;stroke-width:.75804222px">Converter</tspan></text><text style="font-style:normal;font-weight:400;font-size:12.12867546px;line-height:18.95105934px;font-family:sans-serif;letter-spacing:0;word-spacing:0;fill:#000;fill-opacity:1;stroke:none;stroke-width:.75804222px;stroke-linecap:butt;stroke-linejoin:miter;stroke-opacity:1" id="text5849" x="410.094" y="-265.937" xml:space="preserve"><tspan id="tspan5847" x="410.094" y="-265.937" style="font-size:12.12867546px;stroke-width:.75804222px">Digital Waveform</tspan></text><g id="g5954" transform="matrix(4.4316662,0,0,4.4316662,19.456149,-488.17026)"><path id="path5827" d="m 64.689496,51.602078 h 8.202321 v 6.541577 H 64.689496 L 61.0041,54.872867 Z" style="fill:none;fill-rule:evenodd;stroke:#000;stroke-width:.29412222px;stroke-linecap:butt;stroke-linejoin:miter;stroke-opacity:1"/><text id="text5921" x="64.768" y="55.9" xml:space="preserve" style="font-style:normal;font-weight:400;font-size:2.82222223px;line-height:1.86777925px;font-family:sans-serif;letter-spacing:0;word-spacing:0;fill:#000;fill-opacity:1;stroke:none;stroke-width:.07471117px;stroke-linecap:butt;stroke-linejoin:miter;stroke-opacity:1"><tspan style="font-size:2.82222223px;stroke-width:.07471117px" id="tspan5919" x="64.768" y="55.9">ADC</tspan></text></g><g id="g5949" transform="matrix(4.2228835,0,0,4.2228835,-64.707421,-472.48204)"><circle id="path5829" cx="51.47" cy="54.049" r="4.393" style="opacity:1;fill:none;fill-opacity:1;stroke:#000;stroke-width:.2;stroke-linecap:butt;stroke-linejoin:miter;stroke-miterlimit:4;stroke-dasharray:none;stroke-dashoffset:0;stroke-opacity:1"/><path id="path5831" d="m 46.922193,49.349503 v 9.034105" style="fill:none;fill-rule:evenodd;stroke:#000;stroke-width:.26458332px;stroke-linecap:butt;stroke-linejoin:miter;stroke-opacity:1"/><text id="text5921-3" x="49.033" y="54.877" xml:space="preserve" style="font-style:normal;font-weight:400;font-size:2.82222223px;line-height:1.86777925px;font-family:sans-serif;letter-spacing:0;word-spacing:0;fill:#000;fill-opacity:1;stroke:none;stroke-width:.07471117px;stroke-linecap:butt;stroke-linejoin:miter;stroke-opacity:1"><tspan style="font-size:2.82222223px;stroke-width:.07471117px" id="tspan5919-3" x="49.033" y="54.877">Mic</tspan></text></g><text style="font-style:normal;font-weight:400;font-size:8.08578491px;line-height:18.95105934px;font-family:sans-serif;letter-spacing:0;word-spacing:0;fill:#000;fill-opacity:1;stroke:none;stroke-width:.75804222px;stroke-linecap:butt;stroke-linejoin:miter;stroke-opacity:1" id="text5958" x="236.458" y="-221.16" xml:space="preserve"><tspan id="tspan5956" x="236.458" y="-221.16" style="font-size:8.08578491px;stroke-width:.75804222px">Voltage</tspan></text><text style="font-style:normal;font-weight:400;font-size:8.08578491px;line-height:18.95105934px;font-family:sans-serif;letter-spacing:0;word-spacing:0;fill:#000;fill-opacity:1;stroke:none;stroke-width:.75804222px;stroke-linecap:butt;stroke-linejoin:miter;stroke-opacity:1" id="text5962" x="420.479" y="-219.592" xml:space="preserve"><tspan id="tspan5960" x="420.479" y="-219.592" style="font-size:8.08578491px;stroke-width:.75804222px">Numbers</tspan></text><text id="text5966" x="74.448" y="-218.703" xml:space="preserve" style="font-style:normal;font-weight:400;font-size:8.08578491px;line-height:18.95105934px;font-family:sans-serif;letter-spacing:0;word-spacing:0;fill:#000;fill-opacity:1;stroke:none;stroke-width:.75804222px;stroke-linecap:butt;stroke-linejoin:miter;stroke-opacity:1"><tspan style="font-size:8.08578491px;stroke-width:.75804222px" id="tspan5964" x="74.448" y="-218.703">Air Pressure</tspan></text><path style="fill:none;fill-rule:evenodd;stroke:none;stroke-width:.7592361;stroke-linecap:butt;stroke-linejoin:miter;stroke-miterlimit:4;stroke-dasharray:none;stroke-opacity:1;marker-end:url(#marker9899)" id="path5968" d="m 109.30629,-243.97366 18.66563,0.4448"/><path style="fill:none;fill-rule:evenodd;stroke:#000;stroke-width:.85951257;stroke-linecap:butt;stroke-linejoin:miter;stroke-miterlimit:4;stroke-dasharray:.85951256,.85951256;stroke-dashoffset:0;stroke-opacity:1" id="path1792-5-1" d="m 371.80181,-244.67021 85.31765,0.0261"/><path style="fill:none;fill-rule:evenodd;stroke:#000;stroke-width:1.70042634px;stroke-linecap:butt;stroke-linejoin:miter;stroke-opacity:.38348083" id="path1798-7-8" d="m 371.80181,-244.67021 c 2.58054,-11.68726 2.69242,-12.50528 5.86877,-24.14511 1.70239,-5.68137 8.8304,-8.97503 13.88152,-5.37009 4.51931,4.30826 3.76465,6.62781 6.56863,14.71953 2.29955,10.24508 3.43417,14.74217 5.04641,20.99013 1.58766,7.33872 2.75362,13.51483 5.66427,19.94577 3.793,6.74743 4.96718,-2.24372 6.46635,-6.23345 3.19444,-8.64619 5.22629,-17.79901 9.25386,-26.08972 2.21315,-4.92808 7.05483,-9.14436 10.45696,-0.12502 1.81195,5.90627 3.66536,11.81237 6.04144,17.52097 4.50341,5.65343 4.92462,-5.6073 6.4626,-14.25743 1.33452,-6.2429 6.15428,-8.17781 9.60684,3.0703"/><path style="fill:none;fill-rule:evenodd;stroke:#000;stroke-width:.60655624;stroke-linecap:butt;stroke-linejoin:miter;stroke-miterlimit:4;stroke-dasharray:none;stroke-opacity:1;marker-end:url(#marker2208)" id="path1879" d="m 375.52804,-244.70193 v -15.47046"/><path id="path2147" d="m 389.67509,-244.69071 v -30.46811" style="fill:none;fill-rule:evenodd;stroke:#000;stroke-width:.60655624;stroke-linecap:butt;stroke-linejoin:miter;stroke-miterlimit:4;stroke-dasharray:none;stroke-opacity:1;marker-end:url(#marker3352)"/><path style="fill:none;fill-rule:evenodd;stroke:#000;stroke-width:.60655624;stroke-linecap:butt;stroke-linejoin:miter;stroke-miterlimit:4;stroke-dasharray:none;stroke-opacity:1;marker-end:url(#marker3360)" id="use2210" d="m 382.60153,-244.69071 v -29.76187"/><path style="fill:none;fill-rule:evenodd;stroke:#000;stroke-width:.60655624;stroke-linecap:butt;stroke-linejoin:miter;stroke-miterlimit:4;stroke-dasharray:none;stroke-opacity:1;marker-end:url(#marker3364)" id="use2212" d="m 396.74867,-244.69071 v -19.47098"/><path style="fill:none;fill-rule:evenodd;stroke:#000;stroke-width:.60655624;stroke-linecap:butt;stroke-linejoin:miter;stroke-miterlimit:4;stroke-dasharray:none;stroke-opacity:1;marker-end:url(#marker3368)" id="use2214" d="m 403.82218,-244.69071 v 8.87945"/><path style="fill:none;fill-rule:evenodd;stroke:#000;stroke-width:.60655624;stroke-linecap:butt;stroke-linejoin:miter;stroke-miterlimit:4;stroke-dasharray:none;stroke-opacity:1;marker-end:url(#marker3376)" id="use2216" d="m 417.96933,-244.69071 v 11.90618"/><path style="fill:none;fill-rule:evenodd;stroke:#000;stroke-width:.60655624;stroke-linecap:butt;stroke-linejoin:miter;stroke-miterlimit:4;stroke-dasharray:none;stroke-opacity:1;marker-end:url(#marker3384)" id="use2218" d="m 432.11638,-244.69071 v -11.09701"/><path style="fill:none;fill-rule:evenodd;stroke:#000;stroke-width:.60655624;stroke-linecap:butt;stroke-linejoin:miter;stroke-miterlimit:4;stroke-dasharray:none;stroke-opacity:1;marker-end:url(#marker3372)" id="use2220" d="m 410.89575,-244.69071 v 28.04877"/><path style="fill:none;fill-rule:evenodd;stroke:#000;stroke-width:.60655624;stroke-linecap:butt;stroke-linejoin:miter;stroke-miterlimit:4;stroke-dasharray:none;stroke-opacity:1;marker-end:url(#marker3380)" id="use2222" d="m 425.04282,-244.69071 v -7.06137"/><path style="fill:none;fill-rule:evenodd;stroke:#000;stroke-width:.60655624;stroke-linecap:butt;stroke-linejoin:miter;stroke-miterlimit:4;stroke-dasharray:none;stroke-opacity:1;marker-end:url(#marker3388)" id="use2224" d="m 439.18991,-244.69071 v 6.76074"/><path style="fill:none;fill-rule:evenodd;stroke:#000;stroke-width:.60655624;stroke-linecap:butt;stroke-linejoin:miter;stroke-miterlimit:4;stroke-dasharray:none;stroke-opacity:1;marker-end:url(#marker3328)" id="use2226" d="m 446.26345,-244.69071 v 6.25629"/><path style="fill:none;fill-rule:evenodd;stroke:#000;stroke-width:.60655624;stroke-linecap:butt;stroke-linejoin:miter;stroke-miterlimit:4;stroke-dasharray:none;stroke-opacity:1;marker-end:url(#marker3356)" id="use2228" d="m 453.33704,-243.77553 v -8.07026"/><path style="fill:none;fill-rule:evenodd;stroke:#000;stroke-width:.85951257;stroke-linecap:butt;stroke-linejoin:miter;stroke-miterlimit:4;stroke-dasharray:.85951256,.85951256;stroke-dashoffset:0;stroke-opacity:1" id="path1792-5-1-9" d="m 194.52556,-244.66872 66.49404,0.0203"/><path style="fill:none;fill-rule:evenodd;stroke:#000;stroke-width:1.32526171px;stroke-linecap:butt;stroke-linejoin:miter;stroke-opacity:1" id="path1798-7-8-7" d="m 194.52556,-244.66872 c 2.01121,-9.10869 2.09838,-9.74624 4.57394,-18.81797 1.32678,-4.42791 6.88217,-6.99487 10.81883,-4.18529 3.52222,3.35773 2.93406,5.16553 5.1194,11.47195 1.79221,7.98473 2.67651,11.48962 3.93304,16.35909 1.23734,5.71958 2.14607,10.53305 4.41457,15.54514 2.95614,5.25876 3.87126,-1.74867 5.03966,-4.85816 2.48964,-6.73859 4.07323,-13.87201 7.21217,-20.33355 1.72487,-3.8408 5.49835,-7.12684 8.14986,-0.0974 1.41217,4.60316 2.85668,9.2062 4.70852,13.65533 3.50982,4.40609 3.83811,-4.37018 5.03679,-11.11183 1.04007,-4.86554 4.79643,-6.37355 7.48726,2.3929"/><path style="fill:none;fill-rule:evenodd;stroke:#000;stroke-width:.85951257;stroke-linecap:butt;stroke-linejoin:miter;stroke-miterlimit:4;stroke-dasharray:.85951256,.85951256;stroke-dashoffset:0;stroke-opacity:1" id="path1792-5-1-8" d="m 36.362534,-243.99387 66.494056,0.0203"/><path style="fill:none;fill-rule:evenodd;stroke:#000;stroke-width:1.32526171px;stroke-linecap:butt;stroke-linejoin:miter;stroke-opacity:1" id="path1798-7-8-8" d="m 36.362534,-243.99387 c 2.011214,-9.1087 2.098388,-9.74624 4.573956,-18.81798 1.326784,-4.4279 6.882164,-6.99487 10.818824,-4.18529 3.522221,3.35773 2.934057,5.16553 5.119396,11.47195 1.792216,7.98472 2.67652,11.48961 3.933022,16.35909 1.237373,5.71959 2.146097,10.53306 4.414593,15.54515 2.956136,5.25874 3.871261,-1.74869 5.03966,-4.85816 2.489633,-6.73859 4.073215,-13.87202 7.212175,-20.33356 1.724865,-3.8408 5.49835,-7.12683 8.14984,-0.0974 1.412181,4.60317 2.856698,9.20622 4.708529,13.65535 3.509834,4.40608 3.838107,-4.37018 5.036797,-11.11184 1.040071,-4.86553 4.796434,-6.37354 7.487264,2.39291"/><use id="use3411" width="100%" height="100%" x="0" y="0" transform="translate(65.037559,-1.1398492)" xlink:href="#path5968"/><use id="use5035" width="100%" height="100%" x="0" y="0" transform="translate(156.70246,-1.9619339)" xlink:href="#path5968"/><use id="use5093" width="100%" height="100%" x="0" y="0" transform="translate(214.17173,7.8538163)" xlink:href="#path5968"/><path style="fill:none;fill-rule:evenodd;stroke:#000;stroke-width:.7592361;stroke-linecap:butt;stroke-linejoin:miter;stroke-miterlimit:4;stroke-dasharray:none;stroke-opacity:1;marker-end:url(#Arrow1Mend)" id="path9945" d="m 109.20853,-244.49959 c 2.22402,0 15.34585,0 15.34585,0"/><path style="fill:none;fill-rule:evenodd;stroke:#000;stroke-width:.7592361;stroke-linecap:butt;stroke-linejoin:miter;stroke-miterlimit:4;stroke-dasharray:none;stroke-opacity:1;marker-end:url(#Arrow1Mend-9)" id="path9945-4" d="m 174.34384,-244.49959 c 2.22404,0 15.34585,0 15.34585,0"/><path style="fill:none;fill-rule:evenodd;stroke:#000;stroke-width:.7592361;stroke-linecap:butt;stroke-linejoin:miter;stroke-miterlimit:4;stroke-dasharray:none;stroke-opacity:1;marker-end:url(#Arrow1Mend-9-3)" id="path9945-4-3" d="m 267.52483,-244.49959 c 2.22403,0 15.34588,0 15.34588,0"/><path style="fill:none;fill-rule:evenodd;stroke:#000;stroke-width:.7592361;stroke-linecap:butt;stroke-linejoin:miter;stroke-miterlimit:4;stroke-dasharray:none;stroke-opacity:1;marker-end:url(#Arrow1Mend-9-3-8)" id="path9945-4-3-0" d="m 347.89489,-244.49959 c 2.22402,0 15.34586,0 15.34586,0"/></g></svg>